<svg xmlns="http://www.w3.org/2000/svg" width="660" height="920"><g fill="#2ea6a3" stroke="#2ea6a3"><path d="M334 0h326v215H334z" stroke="none"/><path fill="none" d="M334.5.5h325v214h-325z"/></g><g fill="#6dd3d9" stroke="#6dd3d9"><path d="M218 1h95v95h-95z" stroke="none"/><path fill="none" d="M218.5 1.5h94v94h-94z"/></g><g fill="#6dd3d9" stroke="#6dd3d9"><path d="M218 120h95v95h-95z" stroke="none"/><path fill="none" d="M218.5 120.5h94v94h-94z"/></g><g fill="#6dd3d9" stroke="#6dd3d9"><path d="M109 0h95v95h-95z" stroke="none"/><path fill="none" d="M109.5.5h94v94h-94z"/></g><g fill="#6dd3d9" stroke="#6dd3d9"><path d="M0 120h95v95H0z" stroke="none"/><path fill="none" d="M.5 120.5h94v94H.5z"/></g><g fill="#6dd3d9" stroke="#6dd3d9"><path d="M109 239h95v95h-95z" stroke="none"/><path fill="none" d="M109.5 239.5h94v94h-94z"/></g><g fill="#6dd3d9" stroke="#6dd3d9"><path d="M0 357h95v95H0z" stroke="none"/><path fill="none" d="M.5 357.5h94v94H.5z"/></g><g fill="#6dd3d9" stroke="#6dd3d9"><path d="M109 357h95v95h-95z" stroke="none"/><path fill="none" d="M109.5 357.5h94v94h-94z"/></g><g fill="#6dd3d9" stroke="#6dd3d9"><path d="M218 468h95v95h-95z" stroke="none"/><path fill="none" d="M218.5 468.5h94v94h-94z"/></g><g fill="#6dd3d9" stroke="#6dd3d9"><path d="M218 587h95v95h-95z" stroke="none"/><path fill="none" d="M218.5 587.5h94v94h-94z"/></g><g fill="#6dd3d9" stroke="#6dd3d9"><path d="M109 587h95v95h-95z" stroke="none"/><path fill="none" d="M109.5 587.5h94v94h-94z"/></g><g fill="#6dd3d9" stroke="#6dd3d9"><path d="M0 587h95v95H0z" stroke="none"/><path fill="none" d="M.5 587.5h94v94H.5z"/></g><g fill="#6dd3d9" stroke="#6dd3d9"><path d="M218 706h95v95h-95z" stroke="none"/><path fill="none" d="M218.5 706.5h94v94h-94z"/></g><g fill="#6dd3d9" stroke="#6dd3d9"><path d="M218 825h95v95h-95z" stroke="none"/><path fill="none" d="M218.5 825.5h94v94h-94z"/></g><g fill="#6dd3d9" stroke="#6dd3d9"><path d="M109 825h95v95h-95z" stroke="none"/><path fill="none" d="M109.5 825.5h94v94h-94z"/></g><g fill="#2ea6a3" stroke="#2ea6a3"><path d="M340 311h228v148H340z" stroke="none"/><path fill="none" d="M340.5 311.5h227v147h-227z"/></g></svg>